<svg xmlns="http://www.w3.org/2000/svg" viewBox="0 0 250 160"><path fill="#9aaf81" fill-rule="evenodd" d="M133.0,38.4L132.9,39.3L132.8,40.1L132.8,40.8L133.1,41.3L132.4,42.1L131.7,42.5L131.0,42.8L130.3,43.2L129.7,43.7L129.2,44.5L128.2,44.9L127.8,45.4L127.5,46.0L127.7,46.9L128.0,47.9L128.0,48.6L127.5,49.5L126.7,50.5L126.2,50.9L125.6,51.2L124.8,50.4L124.6,49.5L124.4,48.7L124.1,47.4L123.9,46.4L123.6,45.3L123.4,44.3L123.2,43.3L122.4,42.7L121.7,42.2L121.1,41.7L120.3,41.2L120.2,40.5L119.8,39.5L119.5,38.9L118.5,38.4L117.9,38.0L117.5,36.8L117.1,36.0L117.0,34.9L117.2,34.2L118.0,33.6L118.4,33.0L119.2,32.5L119.8,31.9L120.0,31.1L120.1,30.4L120.6,29.5L120.3,28.6L120.3,27.8L120.1,27.2L120.0,26.5L120.1,25.7L120.2,25.1L120.4,24.3L119.8,23.8L120.5,23.1L120.8,22.6L121.4,22.3L122.3,21.5L123.2,20.8L125.8,20.0L126.3,20.2L126.3,20.9L126.5,20.4L127.4,20.4L127.8,21.4L128.3,22.1L128.7,22.7L129.3,22.0L130.1,21.8L130.8,21.3L131.3,21.7L131.2,22.2L130.9,22.7L130.2,23.8L129.6,24.1L129.1,24.5L128.9,25.2L129.0,25.8L129.4,26.4L129.8,26.8L131.0,27.6L131.1,28.3L131.5,29.3L130.8,30.2L130.5,30.9L129.8,31.8L129.1,32.4L127.8,33.2L127.3,33.8L127.2,34.5L127.6,35.4L128.2,36.0L128.8,36.3L129.8,36.1L129.9,36.9L130.6,36.8L131.3,36.7L131.6,37.5L132.1,37.9L132.6,38.2L133.0,38.4ZM132.1,31.4L131.5,31.7L132.0,31.1L132.1,31.4ZM130.8,36.0L130.1,36.0L129.9,35.4L130.7,35.2L131.1,35.6L130.8,36.0ZM141.4,124.3L140.7,124.4L139.8,124.9L139.2,125.1L138.5,125.5L137.6,126.0L137.0,126.6L136.3,127.1L135.5,127.0L135.0,126.6L133.8,126.1L133.0,125.9L130.8,125.8L128.9,126.0L127.9,126.2L127.2,126.5L126.7,126.8L125.5,128.3L123.8,128.2L122.8,128.1L122.0,127.9L120.8,127.2L119.4,126.2L118.8,126.0L118.2,126.0L116.4,127.0L115.7,127.1L115.2,127.4L114.5,127.3L113.5,125.8L113.1,125.3L112.5,124.8L112.0,124.5L110.3,124.1L109.0,123.6L108.0,124.1L107.4,124.2L106.7,124.1L105.7,124.2L104.7,124.6L104.0,125.2L103.4,127.2L103.1,127.7L102.8,128.4L102.1,129.1L101.6,129.5L101.5,131.0L101.5,131.6L101.5,132.2L101.6,132.7L100.8,132.5L100.2,132.2L99.6,131.3L98.5,130.2L97.9,130.3L97.4,130.6L96.5,130.9L96.7,131.9L95.8,131.3L95.4,130.6L95.8,130.0L95.8,129.5L95.4,128.8L94.8,128.7L94.4,129.1L93.7,129.1L93.0,128.9L92.2,128.2L91.4,127.4L90.9,126.7L90.9,126.0L91.7,126.0L91.1,125.4L90.8,124.9L90.1,124.6L89.5,124.3L89.1,123.7L88.7,123.2L88.4,122.4L88.4,121.8L88.0,121.3L87.7,120.8L87.7,120.2L87.8,119.6L87.9,119.0L88.7,118.7L89.9,118.8L90.8,118.7L91.5,118.1L92.2,117.4L93.3,117.4L94.4,117.3L95.4,117.3L96.7,117.2L97.8,117.2L99.0,117.1L100.2,116.9L101.0,117.0L101.1,116.5L101.8,115.8L102.4,115.5L102.6,114.9L102.9,114.0L103.1,113.4L103.5,112.6L103.7,111.6L103.8,110.7L103.8,110.0L103.9,108.5L103.9,107.2L103.9,106.1L103.9,104.8L103.9,103.6L103.9,102.3L103.9,101.1L103.9,100.3L104.8,100.1L105.7,100.0L107.0,99.7L108.4,99.4L110.0,99.1L111.5,97.7L112.0,97.2L113.1,96.2L113.9,95.5L115.0,94.5L116.1,93.5L116.9,92.7L118.3,91.8L120.4,90.5L122.4,89.1L124.5,87.8L126.6,86.4L128.7,85.1L130.7,83.7L132.8,82.4L134.9,81.0L137.0,81.5L138.9,82.0L140.9,82.5L142.4,83.7L143.8,85.0L145.2,84.3L146.9,83.3L147.4,85.9L147.7,88.1L147.7,89.5L147.9,90.1L149.4,92.3L149.3,93.3L150.7,94.8L150.1,96.6L149.8,98.8L149.7,100.1L149.5,101.8L149.4,103.9L149.2,105.7L149.1,108.0L148.9,110.2L147.8,111.4L146.0,113.6L144.5,115.3L143.7,116.5L142.2,118.8L141.6,120.3L141.1,121.0L141.0,122.4L141.4,124.3ZM78.1,29.9L78.5,30.5L79.3,31.1L79.8,31.4L79.6,32.1L80.0,32.6L79.8,33.1L80.2,34.0L80.2,34.8L80.1,35.4L80.2,36.0L80.5,36.7L80.3,37.8L80.5,38.4L80.8,38.9L81.0,39.7L81.6,40.5L82.2,40.9L82.7,41.5L82.0,42.1L82.1,42.9L81.1,43.2L80.5,43.2L79.7,43.1L78.7,43.1L78.1,43.1L77.2,43.0L76.1,43.2L75.5,43.3L75.2,43.7L74.9,44.3L73.2,44.9L72.6,45.0L71.9,45.0L71.6,45.5L71.8,46.1L71.7,46.6L71.8,47.3L72.3,47.5L72.3,48.2L71.6,48.3L70.4,48.8L69.7,49.3L68.9,49.7L67.9,50.0L67.1,50.4L66.7,51.0L66.3,51.7L65.8,52.2L65.2,52.6L64.6,52.8L63.9,53.0L63.0,53.2L62.3,53.2L61.6,53.3L61.0,53.3L60.9,53.9L60.5,54.3L59.6,54.2L58.6,54.1L58.1,54.3L57.6,54.6L57.1,55.1L56.5,55.2L55.2,56.1L53.9,56.9L53.4,57.4L52.8,57.9L52.3,58.2L52.3,59.2L52.3,59.8L52.3,60.7L52.3,61.7L52.3,62.8L51.7,62.9L51.9,63.6L51.8,64.3L52.0,65.0L51.4,65.2L50.7,65.3L49.9,65.2L49.0,65.4L48.3,66.1L47.7,66.3L47.1,66.1L46.5,66.2L45.6,66.1L45.1,65.8L44.4,65.7L43.7,65.6L42.8,65.8L41.9,66.1L41.6,66.6L41.6,67.3L41.1,67.8L40.8,68.3L40.5,68.8L40.2,69.4L39.5,69.8L38.9,69.9L38.7,70.6L38.5,71.3L38.2,72.2L37.9,73.3L37.8,74.0L37.6,74.6L37.3,75.2L36.8,75.7L36.2,76.1L35.4,76.6L34.7,77.1L34.4,77.9L34.1,78.5L33.8,79.0L33.1,79.3L32.4,79.6L31.6,80.0L31.3,80.6L30.9,81.5L30.6,82.9L30.5,83.5L30.3,84.4L30.2,85.1L30.2,85.7L30.1,86.4L29.8,86.9L29.2,87.4L28.7,88.1L28.6,88.8L28.3,89.5L27.6,90.1L26.4,90.2L25.8,90.1L25.2,90.1L24.6,90.1L24.0,90.0L23.3,89.9L22.2,90.0L20.7,90.0L20.1,90.1L19.2,90.2L19.3,88.2L19.8,87.0L20.3,86.5L20.9,86.2L21.6,85.1L21.8,84.0L22.2,83.6L22.2,82.9L22.6,82.3L23.0,81.4L23.2,80.9L23.8,80.0L23.1,80.3L23.4,79.6L23.9,79.1L24.7,78.6L26.2,76.8L26.8,76.5L27.4,75.7L27.6,75.0L27.6,73.5L27.8,72.7L28.2,72.1L28.6,70.9L28.9,70.4L29.1,69.4L29.8,68.8L30.3,68.2L31.2,67.9L32.2,67.2L32.7,66.8L33.0,66.2L33.4,65.0L34.0,63.7L34.3,62.8L34.8,62.3L35.2,61.6L35.8,61.3L37.1,61.2L39.1,60.7L40.8,59.9L41.3,59.6L41.8,58.9L42.7,58.1L44.3,57.1L45.1,56.5L46.2,55.1L47.0,54.0L47.6,53.3L48.0,52.6L48.3,51.9L48.5,50.9L47.9,49.8L47.5,49.2L47.7,48.7L47.7,47.7L47.8,46.1L48.3,44.9L49.6,43.2L49.9,42.5L50.0,41.4L51.7,39.5L52.6,38.3L53.8,37.5L56.8,36.3L58.4,35.5L59.4,34.9L60.0,34.2L61.6,31.3L63.2,27.3L64.0,26.7L64.9,26.5L65.4,26.2L65.7,27.1L66.0,27.6L66.6,28.3L67.7,29.1L68.5,29.4L69.7,29.6L71.1,29.3L71.8,29.3L72.6,29.3L73.4,29.4L74.2,29.3L74.8,28.9L75.3,29.1L75.6,29.8L76.5,29.8L77.3,29.8L78.1,29.9ZM52.3,62.8L52.3,63.5L52.3,64.4L52.3,65.1L52.3,66.0L52.3,66.9L52.3,67.9L52.3,68.9L52.3,69.6L51.5,70.1L50.7,70.1L50.0,70.1L49.2,70.1L48.5,70.1L47.7,70.1L47.0,70.1L46.2,70.1L45.5,70.1L44.8,70.1L44.0,70.1L43.3,70.1L42.5,70.1L41.8,70.1L41.0,70.1L40.3,70.1L39.5,70.1L38.9,70.1L38.9,71.2L38.9,71.8L38.9,72.4L38.9,73.0L38.9,73.6L38.9,74.2L38.9,74.8L38.9,75.4L38.9,76.0L38.9,76.6L38.9,77.2L38.9,77.8L38.9,78.4L38.9,79.0L38.9,79.6L38.9,80.2L38.9,81.2L38.1,81.6L37.5,81.9L36.8,82.0L36.0,82.5L35.4,82.9L34.9,83.3L34.5,83.8L34.3,84.4L34.6,85.3L34.6,86.0L34.7,87.2L34.8,87.7L34.8,88.4L34.8,89.0L34.9,89.6L34.9,90.7L34.3,90.7L33.4,90.7L32.5,90.7L31.6,90.7L30.7,90.7L29.7,90.7L28.8,90.7L27.9,90.7L27.0,90.7L26.1,90.7L25.2,90.7L24.2,90.7L23.3,90.7L22.4,90.7L21.5,90.7L20.6,90.7L19.7,90.7L19.0,91.5L18.8,92.1L18.8,93.0L19.0,90.5L20.1,90.1L20.7,90.0L22.2,90.0L22.8,89.9L24.0,90.0L24.6,90.1L25.2,90.1L25.8,90.1L26.4,90.2L27.1,90.2L28.0,89.9L28.4,89.1L28.5,88.5L28.9,87.8L29.5,87.2L29.9,86.7L30.2,86.1L30.2,85.1L30.3,84.4L30.5,83.5L30.6,82.9L30.8,81.8L31.1,81.0L31.4,80.3L31.9,79.8L32.7,79.5L33.4,79.2L33.9,78.8L34.4,77.9L34.7,77.1L35.2,76.7L35.7,76.4L36.5,75.9L37.0,75.5L37.4,75.0L37.8,74.0L37.9,73.3L38.1,72.6L38.3,71.7L38.6,70.8L38.8,70.1L39.5,69.8L40.1,69.6L40.5,68.8L40.8,68.3L41.1,67.8L41.6,67.3L41.6,66.6L41.9,66.1L42.8,65.8L43.7,65.6L44.4,65.7L45.1,65.8L45.6,66.1L46.2,66.3L46.9,66.1L47.4,66.3L48.1,66.3L48.7,65.7L49.4,65.3L50.2,65.2L51.0,65.3L51.8,65.1L51.9,64.5L51.8,63.8L51.7,62.9L52.3,62.8ZM21.5,97.8L21.4,97.2L21.5,97.8ZM37.9,119.5L37.4,119.1L36.8,118.4L36.1,118.0L35.6,117.5L35.3,116.6L34.7,116.4L34.2,115.9L33.8,114.8L33.6,114.3L33.2,113.8L32.5,113.7L32.0,113.4L31.3,113.3L30.7,112.4L29.8,111.6L28.9,111.3L27.9,111.4L27.3,111.3L26.6,111.3L26.2,111.6L25.5,111.6L24.9,111.7L23.9,112.1L23.2,112.0L22.6,111.8L21.8,112.2L21.6,112.9L21.2,113.3L21.0,114.6L20.9,112.9L21.1,112.2L21.1,111.5L21.6,110.1L22.2,108.9L22.7,107.4L22.9,105.9L22.8,104.4L22.7,103.1L22.4,102.2L22.1,101.0L21.8,100.3L21.1,99.7L21.5,99.2L21.9,97.5L22.1,96.5L22.0,95.9L21.7,94.7L21.3,93.7L20.8,93.9L20.1,93.0L19.5,91.8L18.8,93.0L18.8,92.1L19.0,91.5L19.1,90.7L20.6,90.7L21.5,90.7L22.4,90.7L23.3,90.7L24.2,90.7L25.2,90.7L26.1,90.7L27.0,90.7L27.9,90.7L28.8,90.7L29.7,90.7L30.7,90.7L31.6,90.7L32.5,90.7L33.4,90.7L34.3,90.7L34.9,90.7L34.9,90.1L34.8,89.0L34.8,88.4L34.8,87.7L34.7,87.2L34.7,86.6L34.6,85.5L34.4,84.7L34.4,84.1L34.9,83.3L35.4,82.9L36.0,82.5L36.5,82.1L37.5,81.9L38.1,81.6L38.7,81.4L38.9,80.8L38.9,79.6L38.9,79.0L38.9,78.4L38.9,77.8L38.9,77.2L38.9,76.6L38.9,76.0L38.9,75.4L38.9,74.8L38.9,74.2L38.9,73.6L38.9,73.0L38.9,72.4L38.9,71.8L38.9,71.2L38.9,70.6L39.5,70.1L40.3,70.1L41.0,70.1L41.8,70.1L42.5,70.1L43.3,70.1L44.0,70.1L44.8,70.1L45.5,70.1L46.2,70.1L47.0,70.1L47.7,70.1L48.5,70.1L49.2,70.1L50.0,70.1L50.7,70.1L51.5,70.1L52.3,70.1L52.3,68.9L52.3,67.9L52.3,66.9L52.3,66.0L52.3,65.1L52.3,64.4L53.0,64.9L53.8,65.4L54.5,65.9L55.3,66.4L56.0,66.8L56.8,67.3L57.5,67.8L58.3,68.3L59.0,68.8L59.8,69.3L60.5,69.8L61.3,70.3L62.1,70.7L62.8,71.2L63.5,71.7L64.3,72.2L64.9,72.6L65.9,73.3L66.8,73.9L67.7,74.5L66.3,74.5L64.4,74.5L63.2,74.5L61.9,74.5L60.6,74.5L60.7,75.5L60.8,76.6L61.0,77.7L61.1,78.8L61.2,79.9L61.3,81.0L61.4,82.1L61.5,83.2L61.6,84.3L61.7,85.4L61.9,86.5L62.0,87.6L62.1,88.7L62.2,89.8L62.3,90.9L62.4,92.0L62.6,93.1L62.7,94.2L62.8,95.3L62.9,96.4L63.0,97.5L63.1,98.6L63.2,99.7L63.3,100.8L63.5,101.9L63.6,103.0L63.7,104.0L63.8,105.1L63.9,106.2L64.0,107.3L64.2,108.4L64.3,109.5L64.4,110.6L64.5,111.7L65.0,112.3L65.6,113.0L65.4,113.9L65.2,115.1L64.9,116.4L64.1,116.4L63.3,116.4L62.5,116.4L61.7,116.4L60.8,116.4L60.0,116.4L59.2,116.4L58.4,116.4L57.6,116.4L56.8,116.4L55.9,116.4L55.1,116.4L54.3,116.4L53.5,116.4L52.7,116.4L51.9,116.4L51.1,116.4L50.3,116.4L49.7,116.3L49.6,115.6L49.2,116.1L48.7,116.7L48.0,116.8L47.2,117.0L46.5,116.9L46.0,116.8L45.3,116.7L44.7,116.7L44.1,116.9L43.7,117.4L43.4,118.0L43.0,117.6L42.3,117.0L41.5,116.3L41.0,115.8L40.3,116.4L39.8,117.1L39.6,118.0L39.5,118.6L38.9,119.5L37.9,119.5ZM41.4,130.1L41.2,129.5L41.3,128.4L41.4,127.7L41.0,127.1L40.8,126.4L40.5,125.8L39.9,125.8L39.4,125.5L38.8,124.6L39.1,124.0L39.1,123.3L39.0,122.7L38.9,122.1L38.6,121.6L38.1,121.0L38.2,120.2L37.9,119.5L38.6,119.7L39.2,119.1L39.6,118.0L39.8,117.1L40.3,116.4L41.0,115.8L41.5,116.3L42.3,117.0L43.0,117.6L43.4,118.0L43.7,117.4L44.1,116.9L44.7,116.7L45.3,116.7L46.0,116.8L46.5,116.9L47.2,117.0L48.0,116.8L48.7,116.7L49.2,116.4L49.5,115.7L49.7,116.3L50.3,116.4L51.1,116.4L51.9,116.4L52.7,116.4L53.5,116.4L54.3,116.4L55.1,116.4L55.9,116.4L56.8,116.4L57.6,116.4L58.4,116.4L59.2,116.4L60.0,116.4L60.8,116.4L61.7,116.4L62.5,116.4L63.3,116.4L64.1,116.4L64.9,116.4L65.2,115.1L65.4,113.9L65.6,113.0L65.0,112.3L64.5,111.7L64.4,110.6L64.3,109.5L64.2,108.4L64.0,107.3L63.9,106.2L63.8,105.1L63.7,104.0L63.6,103.0L63.5,101.9L63.3,100.8L63.2,99.7L63.1,98.6L63.0,97.5L62.9,96.4L62.8,95.3L62.7,94.2L62.6,93.1L62.4,92.0L62.3,90.9L62.2,89.8L62.1,88.7L62.0,87.6L61.9,86.5L61.7,85.4L61.6,84.3L61.5,83.2L61.4,82.1L61.3,81.0L61.2,79.9L61.1,78.8L61.0,77.7L60.8,76.6L60.7,75.5L60.6,74.5L61.9,74.5L63.2,74.5L64.4,74.5L66.3,74.5L67.7,74.5L68.9,75.3L70.0,76.1L71.4,77.1L72.7,78.0L74.0,79.0L75.3,79.9L76.6,80.9L77.9,81.8L79.2,82.8L80.5,83.7L81.8,84.6L83.1,85.6L84.4,86.5L85.8,87.5L87.1,88.4L88.4,89.4L89.7,90.3L91.0,91.3L91.6,91.7L91.7,92.6L91.8,93.2L93.4,94.1L93.7,94.9L94.3,95.2L95.9,95.5L96.6,96.3L97.7,96.6L98.2,96.7L99.0,96.9L99.5,97.2L99.8,97.8L99.8,98.5L100.0,99.2L99.7,99.8L99.4,100.3L100.0,100.9L100.6,101.0L101.7,100.8L102.6,100.6L103.9,100.3L103.9,101.1L103.9,102.3L103.9,103.6L103.9,104.8L103.9,106.1L103.9,107.2L103.9,108.5L103.9,109.8L103.8,110.7L103.7,111.6L103.5,112.6L103.1,113.4L102.9,114.0L102.6,114.7L102.5,115.3L101.8,115.8L101.1,116.5L101.0,117.0L100.2,116.9L99.2,116.7L97.8,117.2L96.7,117.2L95.4,117.3L94.4,117.3L93.3,117.4L92.2,117.4L91.5,118.1L90.8,118.7L89.9,118.8L88.7,118.7L88.1,118.7L87.0,118.7L86.1,118.4L85.4,118.6L84.8,118.3L84.0,118.4L83.4,118.9L82.9,119.3L82.2,119.7L81.0,120.3L80.4,120.7L79.5,120.9L78.8,122.2L77.2,121.8L76.7,122.0L75.9,122.7L75.5,123.2L75.3,124.0L75.2,124.6L74.2,124.5L73.9,125.7L73.4,126.4L72.9,126.6L71.6,125.8L70.8,125.8L70.2,126.3L69.7,126.9L70.0,127.6L70.1,128.4L69.1,128.9L69.3,129.7L69.3,130.4L68.8,130.9L68.5,131.3L67.8,131.7L67.1,131.9L66.6,132.0L66.1,132.3L65.8,132.9L65.9,133.5L66.0,134.6L65.8,135.4L65.3,135.9L65.1,136.6L65.2,137.3L65.1,137.8L65.0,138.6L64.2,138.8L63.6,139.0L63.2,139.5L62.5,139.8L62.0,139.5L62.2,138.9L62.0,138.2L62.0,137.5L61.4,137.7L61.3,138.2L60.7,138.1L60.2,138.4L60.2,139.1L59.7,139.1L59.1,139.4L59.0,140.0L58.3,139.7L57.5,139.5L57.2,139.0L56.3,138.8L55.7,139.6L55.2,140.0L55.0,139.3L54.1,138.8L53.8,138.0L53.7,137.4L53.8,136.7L53.4,136.1L52.7,136.3L52.7,135.5L53.2,135.0L53.1,134.5L52.5,134.1L52.2,133.5L51.7,132.7L51.3,131.4L51.0,130.3L50.5,129.9L49.8,129.7L49.6,130.2L49.4,130.7L48.6,131.1L48.1,131.7L47.0,131.3L46.3,131.1L45.6,131.0L45.1,131.2L44.6,131.9L44.2,132.3L43.8,131.7L43.5,131.2L43.0,130.9L42.5,131.4L42.0,131.8L41.3,131.4L41.1,130.8L41.3,130.2L41.4,130.1ZM125.1,51.4L126.2,50.9L126.7,50.5L127.2,49.9L127.9,49.0L128.0,48.3L127.7,46.9L127.5,46.0L127.8,45.4L128.2,44.9L128.9,44.8L129.4,44.1L130.1,43.5L131.0,42.8L131.7,42.5L132.4,42.1L133.0,41.8L132.8,40.8L132.8,40.1L132.9,39.3L133.0,38.5L133.6,38.7L134.3,38.8L136.1,39.8L136.7,39.9L138.0,40.1L139.6,39.6L140.1,39.5L141.2,39.9L142.3,40.1L143.6,40.5L144.7,41.2L147.7,41.9L148.4,42.9L148.5,43.7L148.7,44.3L149.0,45.1L149.4,45.7L149.8,46.1L150.3,46.4L151.5,46.8L152.8,47.0L154.1,47.1L156.4,47.6L158.3,48.3L158.8,48.7L159.8,49.0L161.7,50.6L162.8,51.1L163.5,51.2L164.2,51.1L165.4,50.6L165.8,50.3L167.1,48.9L167.4,48.2L167.6,47.1L167.1,46.2L166.8,45.5L166.7,44.4L166.9,43.6L167.5,42.6L168.5,41.7L169.5,41.0L171.2,40.2L172.3,40.2L173.5,39.4L174.4,39.6L175.8,39.5L176.4,39.7L177.1,40.1L178.0,40.3L178.7,40.6L179.4,40.9L179.5,41.6L180.1,42.6L182.2,42.9L183.2,43.4L184.9,43.6L185.7,43.5L186.5,43.7L187.1,44.1L187.5,44.9L187.2,45.5L186.7,46.1L186.4,47.1L186.5,47.7L186.7,48.3L186.9,49.0L186.7,50.0L185.9,51.3L186.2,52.9L186.5,54.3L186.7,55.2L186.9,55.8L186.9,57.0L186.9,58.0L186.9,59.0L186.9,60.0L186.9,61.0L186.9,62.0L186.9,63.0L186.9,64.0L186.9,64.9L186.9,65.9L186.9,66.9L186.9,67.9L186.9,68.9L186.9,69.9L186.9,70.9L186.9,71.9L186.9,72.9L186.9,73.9L186.9,74.9L186.9,75.9L186.9,76.8L186.9,77.8L186.9,78.8L186.9,79.8L186.9,80.8L186.9,81.8L186.9,82.8L186.9,83.8L186.9,84.8L186.9,85.8L186.9,86.8L186.9,87.7L186.9,89.9L186.9,92.1L186.9,94.3L186.9,96.5L185.9,96.6L184.9,96.6L183.9,96.6L182.9,96.6L182.9,97.1L182.9,97.7L182.9,98.2L182.9,98.8L181.0,97.7L179.1,96.7L177.2,95.6L175.3,94.6L173.3,93.5L171.4,92.5L169.5,91.5L167.6,90.4L165.7,89.4L163.8,88.3L161.8,87.3L159.9,86.2L158.0,85.2L156.1,84.2L154.2,83.1L152.3,82.1L150.9,81.3L149.5,82.0L148.4,82.6L146.9,83.3L145.2,84.3L143.9,85.0L142.4,83.7L141.4,82.8L138.9,82.0L137.0,81.5L134.9,81.0L134.5,80.2L134.1,79.4L133.5,78.3L133.1,77.6L131.4,77.0L129.7,76.5L128.8,76.8L128.0,76.3L127.5,75.4L127.1,74.3L127.1,73.3L126.1,71.7L125.3,70.6L124.8,69.8L124.7,69.0L125.7,68.1L126.4,67.6L126.6,66.3L126.2,65.5L126.0,64.7L126.3,63.2L126.7,62.2L126.4,61.0L126.3,58.8L126.4,57.0L126.3,56.3L126.0,55.2L125.7,54.3L125.2,53.3L124.6,52.4L124.2,51.9L125.1,51.4ZM234.5,87.7L233.2,87.7L231.9,87.7L230.5,87.7L229.2,87.7L227.9,87.7L226.6,87.7L225.3,87.7L224.0,87.7L222.7,87.7L221.4,87.7L220.1,87.7L218.7,87.7L217.4,87.7L216.1,87.7L214.8,87.7L213.5,87.7L212.7,87.7L213.0,87.1L212.0,87.7L211.4,87.7L209.8,87.7L208.3,87.7L206.8,87.7L205.3,87.7L203.7,87.7L202.2,87.7L200.7,87.7L199.1,87.7L197.6,87.7L196.1,87.7L194.6,87.7L193.0,87.7L191.5,87.7L190.0,87.7L188.5,87.7L186.9,87.7L186.9,86.8L186.9,85.8L186.9,84.8L186.9,83.8L186.9,82.8L186.9,81.8L186.9,80.8L186.9,79.8L186.9,78.8L186.9,77.8L186.9,76.8L186.9,75.9L186.9,74.9L186.9,73.9L186.9,72.9L186.9,71.9L186.9,70.9L186.9,69.9L186.9,68.9L186.9,67.9L186.9,66.9L186.9,65.9L186.9,64.9L186.9,64.0L186.9,63.0L186.9,62.0L186.9,61.0L186.9,60.0L186.9,59.0L186.9,58.0L186.9,57.0L186.9,56.0L186.7,55.2L186.5,54.3L186.2,53.3L185.8,51.8L186.5,50.4L186.8,49.4L186.7,48.3L186.5,47.7L186.4,47.1L186.4,46.5L187.1,45.7L187.4,45.2L187.9,45.6L188.5,45.7L190.6,45.3L192.8,45.7L194.1,45.9L196.0,46.3L197.2,47.1L198.3,47.1L198.9,47.6L201.1,47.8L202.2,48.3L202.9,48.6L203.6,48.7L204.7,48.3L205.4,48.0L206.7,47.0L207.5,46.9L208.1,46.6L208.6,46.0L209.3,45.9L210.7,45.5L209.3,46.2L209.8,46.2L210.4,46.1L211.0,46.0L211.2,45.4L211.8,45.4L213.1,46.0L214.4,45.7L215.5,46.5L214.6,45.9L214.1,46.7L214.6,46.9L215.3,47.3L215.8,47.5L216.0,46.9L217.1,47.6L217.7,47.7L218.4,47.5L219.5,47.3L220.5,47.4L221.7,47.4L222.6,47.2L223.7,46.7L224.3,48.0L224.6,48.8L225.0,49.8L225.1,50.4L225.6,51.6L225.9,52.5L226.2,53.2L226.5,54.3L226.4,54.9L225.9,55.6L225.5,57.9L224.8,59.7L224.7,60.8L224.3,61.7L223.9,62.3L223.2,62.0L222.0,61.0L221.4,60.1L220.7,59.5L220.0,58.7L219.8,58.2L219.5,56.9L218.5,55.6L218.1,54.8L217.6,53.3L217.3,52.5L217.0,53.1L216.6,53.5L216.4,54.0L217.3,55.1L217.6,56.0L217.5,56.9L218.1,57.8L218.4,58.5L219.1,59.3L219.8,60.3L220.5,61.0L221.0,61.4L221.2,62.6L221.6,63.8L222.2,64.5L222.6,65.4L222.8,67.2L223.2,67.6L224.3,70.0L225.3,71.4L225.7,72.5L226.4,73.9L227.8,76.8L228.6,77.7L228.9,78.2L229.5,78.6L230.1,79.2L229.5,79.1L229.1,79.6L229.1,81.4L229.3,82.1L229.8,83.6L230.2,84.0L230.6,84.5L231.9,84.9L232.7,86.0L234.3,87.3L234.5,87.7ZM121.3,21.8L121.0,22.5L120.5,23.1L119.9,23.5L120.3,24.1L120.2,25.1L120.1,25.7L120.0,26.5L120.1,27.2L120.3,27.8L120.3,28.6L120.6,29.5L120.2,30.0L120.0,31.1L119.8,31.9L119.2,32.5L118.4,33.0L118.0,33.6L117.2,34.2L117.0,34.9L117.0,35.5L117.5,36.8L117.8,37.6L118.1,38.1L119.3,38.8L119.8,39.5L120.2,40.5L120.3,41.2L121.1,41.7L121.7,42.2L122.4,42.7L123.1,43.1L123.4,44.3L123.6,45.3L123.9,46.4L124.1,47.4L124.4,48.7L124.6,49.5L124.8,50.4L125.1,51.4L124.2,51.9L124.6,52.4L125.2,53.3L125.6,54.0L126.0,55.2L126.2,56.0L126.4,57.0L126.3,58.8L126.4,61.0L126.7,62.2L126.3,63.2L126.0,64.2L126.2,65.5L126.3,66.0L126.5,67.3L125.7,68.1L125.0,68.6L124.7,69.4L125.3,70.6L126.1,71.7L127.0,73.0L127.1,74.3L127.5,75.4L127.9,75.9L128.3,76.6L129.7,76.5L131.4,77.0L133.0,77.5L133.5,78.3L134.1,79.4L134.5,80.2L134.9,81.0L132.8,82.4L130.7,83.7L128.7,85.1L126.6,86.4L124.5,87.8L122.4,89.1L120.4,90.5L118.3,91.8L116.9,92.7L116.1,93.5L115.0,94.5L113.9,95.5L113.1,96.2L112.0,97.2L111.5,97.7L110.3,98.9L108.4,99.4L107.0,99.7L105.7,100.0L104.8,100.1L103.9,100.3L102.6,100.6L101.7,100.8L100.8,101.0L100.0,100.9L99.5,100.5L99.7,99.8L100.0,99.3L99.8,98.5L99.8,97.8L99.5,97.2L99.0,96.9L98.2,96.7L97.7,96.6L96.9,96.4L96.1,95.6L94.7,95.4L94.0,95.1L93.6,94.5L92.2,93.4L91.7,92.9L91.7,92.2L91.0,91.3L89.7,90.3L88.4,89.4L87.1,88.4L85.8,87.5L84.4,86.5L83.1,85.6L81.8,84.6L80.5,83.7L79.2,82.8L77.9,81.8L76.6,80.9L75.3,79.9L74.0,79.0L72.7,78.0L71.4,77.1L70.0,76.1L68.9,75.3L67.7,74.5L66.8,73.9L65.9,73.3L64.9,72.6L64.3,72.2L63.5,71.7L62.8,71.2L62.1,70.7L61.3,70.3L60.5,69.8L59.8,69.3L59.0,68.8L58.3,68.3L57.5,67.8L56.8,67.3L56.0,66.8L55.3,66.4L54.5,65.9L53.8,65.4L53.0,64.9L52.3,64.4L52.3,63.5L52.3,62.8L52.3,61.7L52.3,60.7L52.3,59.8L52.3,59.2L52.3,58.5L52.8,57.9L53.4,57.4L53.9,56.9L55.0,56.2L56.3,55.3L57.1,55.1L57.6,54.6L58.1,54.3L58.6,54.1L59.6,54.2L60.5,54.3L60.9,53.9L61.0,53.3L61.6,53.3L62.1,53.2L63.0,53.2L63.9,53.0L64.6,52.8L65.2,52.6L65.8,52.2L66.3,51.7L66.7,51.0L67.1,50.4L67.9,50.0L68.5,49.7L69.7,49.3L70.4,48.8L71.1,48.4L72.2,48.2L72.5,47.7L71.9,47.3L71.7,46.6L71.8,46.1L71.6,45.5L71.9,45.0L72.6,45.0L73.2,44.9L74.9,44.3L75.2,43.7L75.5,43.3L76.1,43.2L76.9,43.0L78.1,43.1L78.7,43.1L79.7,43.1L80.5,43.2L81.1,43.2L81.9,43.2L82.0,42.4L82.4,41.8L82.6,41.2L81.8,40.6L81.2,40.1L80.8,38.9L80.5,38.4L80.3,37.8L80.5,36.7L80.2,36.0L80.1,35.4L80.2,34.8L80.2,34.0L79.8,33.1L80.0,32.6L79.6,32.1L79.8,31.6L79.3,31.1L78.5,30.5L78.1,29.9L78.9,30.0L80.3,29.5L81.1,29.0L81.7,28.7L82.2,28.2L82.6,27.8L83.3,27.4L85.3,26.5L86.2,26.7L86.8,26.7L87.6,25.7L88.2,25.2L89.1,24.8L90.2,24.4L90.9,24.0L92.0,23.6L94.9,23.4L96.4,23.2L97.4,23.3L98.4,22.7L101.1,22.4L102.1,22.0L106.0,22.0L107.0,22.4L107.8,22.9L108.7,23.0L109.9,22.4L111.3,22.1L112.0,21.8L112.3,21.3L112.9,21.1L114.7,21.9L115.6,21.8L115.8,21.1L116.7,21.3L117.4,21.5L118.2,22.0L119.5,21.9L121.3,21.8Z"/></svg>
